<svg width="96" height="96" viewBox="0 0 96 96" fill="none" xmlns="http://www.w3.org/2000/svg">
<g filter="url(#filter0_dd_16_119)">
<circle cx="48" cy="40" r="30" fill="url(#paint0_linear_16_119)"/>
<circle cx="48" cy="40" r="29.5" stroke="#1ABC9C"/>
</g>
<path d="M66.0004 23H61.5134L61.7979 44.4656M53.4515 32.186H48.9645L49.249 53.6526M42.7458 23H38.2598L38.5433 44.4656" stroke="#1ABC9C" stroke-width="2" stroke-linecap="round" stroke-linejoin="round"/>
<path d="M31.0005 44.9675C30.9923 45.466 31.0835 45.9613 31.2686 46.4243C31.4537 46.8873 31.7291 47.3088 32.0787 47.6644C32.4284 48.0199 32.8453 48.3024 33.3051 48.4953C33.765 48.6881 34.2586 48.7876 34.7573 48.7878C35.256 48.7881 35.7497 48.6891 36.2098 48.4967C36.6698 48.3043 37.087 48.0223 37.437 47.6671C37.787 47.3119 38.0628 46.8906 38.2484 46.4278C38.4339 45.965 38.5256 45.4698 38.5179 44.9713V44.9675C38.5261 44.4689 38.4349 43.9737 38.2498 43.5107C38.0647 43.0477 37.7893 42.6261 37.4397 42.2705C37.0901 41.915 36.6732 41.6326 36.2133 41.4397C35.7535 41.2468 35.2598 41.1473 34.7611 41.1471C34.2625 41.1468 33.7687 41.2458 33.3087 41.4382C32.8486 41.6306 32.4314 41.9127 32.0814 42.2679C31.7315 42.6231 31.4556 43.0443 31.2701 43.5072C31.0845 43.97 30.9929 44.4651 31.0005 44.9637V44.9675ZM41.7062 54.1545C41.6946 54.655 41.7832 55.1529 41.9668 55.6188C42.1503 56.0846 42.4251 56.5091 42.7749 56.8674C43.1248 57.2256 43.5427 57.5103 44.0042 57.7048C44.4656 57.8993 44.9613 57.9997 45.462 58C45.9628 58.0003 46.4585 57.9006 46.9202 57.7066C47.3819 57.5127 47.8002 57.2285 48.1505 56.8708C48.5008 56.513 48.7761 56.0888 48.9602 55.6232C49.1443 55.1575 49.2336 54.6598 49.2227 54.1592V54.1545C49.234 53.6539 49.1452 53.156 48.9615 52.6902C48.7778 52.2244 48.5029 51.8 48.1529 51.4419C47.8029 51.0838 47.3848 50.7993 46.9233 50.6049C46.4618 50.4106 45.9661 50.3104 45.4654 50.3103C44.9646 50.3102 44.4689 50.4101 44.0073 50.6042C43.5457 50.7983 43.1275 51.0826 42.7773 51.4406C42.4271 51.7985 42.152 52.2228 41.9681 52.6885C41.7841 53.1542 41.6951 53.652 41.7062 54.1526V54.1545ZM54.2551 44.9675C54.2469 45.466 54.338 45.9613 54.5232 46.4243C54.7083 46.8873 54.9837 47.3088 55.3333 47.6644C55.6829 48.0199 56.0998 48.3024 56.5597 48.4953C57.0195 48.6881 57.5132 48.7876 58.0119 48.7878C58.5105 48.7881 59.0043 48.6891 59.4643 48.4967C59.9244 48.3043 60.3416 48.0223 60.6915 47.6671C61.0415 47.3119 61.3173 46.8906 61.5029 46.4278C61.6885 45.965 61.7801 45.4698 61.7725 44.9713V44.9675C61.7806 44.4689 61.6895 43.9737 61.5044 43.5107C61.3193 43.0477 61.0439 42.6261 60.6943 42.2705C60.3446 41.915 59.9277 41.6326 59.4679 41.4397C59.008 41.2468 58.5144 41.1473 58.0157 41.1471C57.517 41.1468 57.0233 41.2458 56.5632 41.4382C56.1032 41.6306 55.686 41.9127 55.336 42.2679C54.986 42.6231 54.7102 43.0443 54.5246 43.5072C54.339 43.97 54.2474 44.4651 54.2551 44.9637V44.9675Z" stroke="#1ABC9C" stroke-width="2" stroke-linecap="round" stroke-linejoin="round"/>
<defs>
<filter id="filter0_dd_16_119" x="0" y="0" width="96" height="96" filterUnits="userSpaceOnUse" color-interpolation-filters="sRGB">
<feFlood flood-opacity="0" result="BackgroundImageFix"/>
<feColorMatrix in="SourceAlpha" type="matrix" values="0 0 0 0 0 0 0 0 0 0 0 0 0 0 0 0 0 0 127 0" result="hardAlpha"/>
<feOffset dy="4"/>
<feGaussianBlur stdDeviation="2"/>
<feColorMatrix type="matrix" values="0 0 0 0 0 0 0 0 0 0 0 0 0 0 0 0 0 0 0.3 0"/>
<feBlend mode="normal" in2="BackgroundImageFix" result="effect1_dropShadow_16_119"/>
<feColorMatrix in="SourceAlpha" type="matrix" values="0 0 0 0 0 0 0 0 0 0 0 0 0 0 0 0 0 0 127 0" result="hardAlpha"/>
<feMorphology radius="6" operator="dilate" in="SourceAlpha" result="effect2_dropShadow_16_119"/>
<feOffset dy="8"/>
<feGaussianBlur stdDeviation="6"/>
<feColorMatrix type="matrix" values="0 0 0 0 0 0 0 0 0 0 0 0 0 0 0 0 0 0 0.15 0"/>
<feBlend mode="normal" in2="effect1_dropShadow_16_119" result="effect2_dropShadow_16_119"/>
<feBlend mode="normal" in="SourceGraphic" in2="effect2_dropShadow_16_119" result="shape"/>
</filter>
<linearGradient id="paint0_linear_16_119" x1="48" y1="10" x2="48" y2="70" gradientUnits="userSpaceOnUse">
<stop stop-color="#9B59B6"/>
<stop offset="1" stop-color="#442750"/>
</linearGradient>
</defs>
</svg>
